<?xml version="1.0" encoding="UTF-8"?>
<svg width="185px" height="185px" viewBox="0 0 185 185" version="1.1" xmlns="http://www.w3.org/2000/svg" xmlns:xlink="http://www.w3.org/1999/xlink">
    <!-- Generator: Sketch 58 (84663) - https://sketch.com -->
    <title>Fill 4</title>
    <desc>Created with Sketch.</desc>
    <g id="Page-1" stroke="none" stroke-width="1" fill="none" fill-rule="evenodd">
        <g id="Working-Copy" transform="translate(-10.000000, -11.000000)" fill="#FFFFFF">
            <g id="Group-6" transform="translate(10.000000, 11.000000)">
                <path d="M27.6408633,0 C19.9773381,0 13.135,3.28607914 8.20920863,8.21320144 L8.20920863,8.21320144 C3.01190647,13.1389928 0,19.9826619 0,27.647518 L0,27.647518 L0,118.74205 C0,126.410899 3.26345324,133.25723 8.15330935,138.185683 L8.15330935,138.185683 C13.0484892,143.390971 19.8415827,146.402878 27.4532014,146.402878 L27.4532014,146.402878 L38.5971223,146.402878 L38.5971223,157.529496 C38.5971223,165.202338 41.8818705,172.053993 46.8063309,176.98777 L46.8063309,176.98777 C50.9814748,181.398489 56.5328058,184.237374 62.7948561,185 L62.7948561,185 L160.678489,185 C166.989784,184.206763 172.587698,181.194856 176.792122,176.98777 L176.792122,176.98777 C181.990755,172.053993 185,165.202338 185,157.529496 L185,157.529496 L185,66.2752518 C185,58.6024101 181.715252,51.7507554 176.792122,46.8183094 L176.792122,46.8183094 C171.865,41.6116906 165.022662,38.5971223 157.360468,38.5971223 L157.360468,38.5971223 L146.402878,38.5971223 L146.402878,27.647518 C146.402878,19.9826619 143.118129,13.1389928 138.193669,8.21320144 L138.193669,8.21320144 C133.266547,3.01190647 126.426871,0 118.763345,0 L118.763345,0 L27.6408633,0 Z M15.5785971,130.705827 C12.5653597,127.69259 10.647482,123.30982 10.647482,118.656871 L10.647482,27.6355396 C10.647482,22.9785971 12.5640288,18.5931655 15.5772662,15.5799281 C18.5851799,12.5653597 22.9679496,10.647482 27.6222302,10.647482 L118.783309,10.647482 C123.436259,10.647482 127.816367,12.5653597 130.826942,15.5799281 C133.84018,18.5931655 135.755396,22.9785971 135.755396,27.6355396 L135.755396,38.5971223 L118.453237,38.5971223 L118.453237,25.7124101 C118.453237,24.0555558 117.110092,22.7124101 115.453237,22.7124101 L110.805755,22.7124101 C109.148901,22.7124101 107.805755,24.0555558 107.805755,25.7124101 L107.805755,44.0433094 L107.805755,44.0433094 C107.805755,46.7797122 109.933921,49.2446043 112.86464,49.2446043 L135.755396,49.2446043 L135.755396,73.2014388 C135.755396,76.0017266 137.998022,78.5251799 141.079137,78.5251799 L159.934424,78.5251799 C161.591279,78.5251799 162.934424,77.1820341 162.934424,75.5251799 L162.934424,70.8776978 C162.934424,69.2208436 161.591279,67.8776978 159.934424,67.8776978 L146.402878,67.8776978 L146.402878,67.8776978 L146.402878,49.2446043 L157.528165,49.2446043 C162.142518,49.2446043 166.482698,51.1930935 169.467986,54.2502518 C172.453273,57.3100719 174.352518,61.7607194 174.352518,66.4868705 L174.352518,157.363129 C174.352518,162.021403 172.435971,166.406835 169.425396,169.420072 C166.413489,172.43464 162.034712,174.352518 157.379101,174.352518 L66.2166906,174.352518 C61.563741,174.352518 57.1836331,172.43464 54.1717266,169.420072 C51.162482,166.406835 49.2446043,162.021403 49.2446043,157.363129 L49.2446043,146.402878 L67.8776978,146.402878 L67.8776978,159.28759 C67.8776978,160.944444 69.2208436,162.28759 70.8776978,162.28759 L75.5251799,162.28759 C77.1820341,162.28759 78.5251799,160.944444 78.5251799,159.28759 L78.5251799,140.960683 L78.5251799,140.960683 C78.5251799,138.218957 76.2958633,135.755396 73.2267266,135.755396 L49.2446043,135.755396 L49.2446043,111.795899 C49.2446043,108.995612 47.0033094,106.47482 43.9195324,106.47482 L25.0642446,106.47482 C23.4073904,106.47482 22.0642446,107.817966 22.0642446,109.47482 L22.0642446,114.122302 C22.0642446,115.779156 23.4073904,117.122302 25.0642446,117.122302 L38.5971223,117.122302 L38.5971223,117.122302 L38.5971223,135.755396 L27.6634892,135.755396 C23.0052158,135.755396 18.622446,133.837518 15.6118705,130.825612 L15.5785971,130.705827 Z M91.8417266,74.6002518 L94.4892086,74.6002518 C96.6983476,74.6002518 98.4892086,72.8093908 98.4892086,70.6002518 L98.4892086,25.4848201 C98.4892086,23.8279659 97.1460629,22.4848201 95.4892086,22.4848201 L90.8417266,22.4848201 C89.1848724,22.4848201 87.8417266,23.8279659 87.8417266,25.4848201 L87.8417266,70.6002518 C87.8417266,72.8093908 89.6325876,74.6002518 91.8417266,74.6002518 Z M67.8776978,26.3459353 L67.8776978,38.5971223 L67.8776978,38.5971223 L43.7970863,38.5971223 C41.0593525,38.5971223 38.5971223,40.7878417 38.5971223,43.8010791 L38.5971223,69.2086331 L25.7616547,69.2086331 C24.1048004,69.2086331 22.7616547,70.5517788 22.7616547,72.2086331 L22.7616547,76.8561151 C22.7616547,78.5129694 24.1048004,79.8561151 25.7616547,79.8561151 L44.0446403,79.8561151 L44.0446403,79.8561151 C46.7823741,79.8561151 49.2446043,77.6667266 49.2446043,74.6561511 L49.2446043,50.5755396 L73.3252158,50.5755396 C76.0616187,50.5755396 78.5251799,48.3848201 78.5251799,45.3742446 L78.5251799,26.3459353 C78.5251799,24.689081 77.1820341,23.3459353 75.5251799,23.3459353 L70.8776978,23.3459353 C69.2208436,23.3459353 67.8776978,24.689081 67.8776978,26.3459353 Z M110.877554,91.8417266 L110.877554,94.4892086 C110.877554,96.6983476 112.668415,98.4892086 114.877554,98.4892086 L159.998309,98.4892086 C161.655164,98.4892086 162.998309,97.1460629 162.998309,95.4892086 L162.998309,90.8417266 C162.998309,89.1848724 161.655164,87.8417266 159.998309,87.8417266 L114.877554,87.8417266 C112.668415,87.8417266 110.877554,89.6325876 110.877554,91.8417266 Z M22.4182734,90.8417266 L22.4182734,95.4892086 C22.4182734,97.1460629 23.7614191,98.4892086 25.4182734,98.4892086 L71.533705,98.4892086 C73.1905593,98.4892086 74.533705,97.1460629 74.533705,95.4892086 L74.533705,91.8417266 C74.533705,89.6325876 72.742844,87.8417266 70.533705,87.8417266 L25.4182734,87.8417266 C23.7614191,87.8417266 22.4182734,89.1848724 22.4182734,90.8417266 Z M141.079137,106.47482 C138.276187,106.47482 135.755396,108.658885 135.755396,111.661475 L135.755396,135.755396 L111.798561,135.755396 C108.996942,135.755396 106.47482,137.943453 106.47482,140.960683 L106.47482,159.320863 C106.47482,160.977718 107.817966,162.320863 109.47482,162.320863 L114.122302,162.320863 C115.779156,162.320863 117.122302,160.977718 117.122302,159.320863 L117.122302,146.402878 L117.122302,146.402878 L141.204245,146.402878 C143.939317,146.402878 146.402878,144.212158 146.402878,141.200252 L146.402878,117.122302 L157.331187,117.122302 C158.105324,117.122302 158.87946,117.122302 159.653597,117.122302 C161.310451,117.122302 162.653597,115.779156 162.653597,114.122302 L162.653597,109.47482 C162.653597,107.817966 161.310451,106.47482 159.653597,106.47482 L141.079137,106.47482 L141.079137,106.47482 Z M90.8417266,163.34036 L95.4892086,163.34036 C97.1460629,163.34036 98.4892086,161.997214 98.4892086,160.34036 L98.4892086,115.218273 C98.4892086,113.009134 96.6983476,111.218273 94.4892086,111.218273 L91.8417266,111.218273 C89.6325876,111.218273 87.8417266,113.009134 87.8417266,115.218273 L87.8417266,160.34036 C87.8417266,161.997214 89.1848724,163.34036 90.8417266,163.34036 Z" id="Fill-4"></path>
            </g>
        </g>
    </g>
</svg>